<svg xmlns="http://www.w3.org/2000/svg" xmlns:xlink="http://www.w3.org/1999/xlink" fill="none" version="1.1" width="24" height="24" viewBox="0 0 24 24"><defs><clipPath id="master_svg0_112_4988"><rect x="0" y="0" width="24" height="24" rx="0"/></clipPath></defs><g clip-path="url(#master_svg0_112_4988)"><g><g><path d="M14,6C14,4.89543,14.8954,4,16,4C16,4,18,4,18,4C19.104599999999998,4,20,4.895431,20,6C20,6,20,8,20,8C20,9.104569999999999,19.104599999999998,10,18,10C18,10,16,10,16,10C14.8954,10,14,9.104569999999999,14,8C14,8,14,6,14,6C14,6,14,6,14,6ZM4,16C4,14.8954,4.895431,14,6,14C6,14,8,14,8,14C9.104569999999999,14,10,14.8954,10,16C10,16,10,18,10,18C10,19.104599999999998,9.104569999999999,20,8,20C8,20,6,20,6,20C4.89543,20,4,19.104599999999998,4,18C4,18,4,16,4,16C4,16,4,16,4,16ZM4,6C4,4.89543,4.895431,4,6,4C6,4,8,4,8,4C9.104569999999999,4,10,4.895431,10,6C10,6,10,8,10,8C10,9.104569999999999,9.104569999999999,10,8,10C8,10,6,10,6,10C4.89543,10,4,9.104569999999999,4,8C4,8,4,6,4,6C4,6,4,6,4,6ZM14,16C14,14.8954,14.8954,14,16,14C16,14,18,14,18,14C19.104599999999998,14,20,14.8954,20,16C20,16,20,18,20,18C20,19.104599999999998,19.104599999999998,20,18,20C18,20,16,20,16,20C14.8954,20,14,19.104599999999998,14,18C14,18,14,16,14,16C14,16,14,16,14,16Z" fill="#86909C" fill-opacity="1"/></g></g></g></svg>