<svg xmlns="http://www.w3.org/2000/svg" xmlns:xlink="http://www.w3.org/1999/xlink" fill="none" version="1.1" width="24.000001907348633" height="23.999998092651367" viewBox="0 0 24.000001907348633 23.999998092651367"><defs><clipPath id="master_svg0_217_6554"><rect x="0" y="0" width="23.999998092651367" height="24.000001907348633" rx="0"/></clipPath></defs><g transform="matrix(0,1,1,0,0,0)" clip-path="url(#master_svg0_217_6554)"><g><path d="M7.46967,9.46967C7.1767768,9.76256,7.1767768,10.23744,7.46967,10.53033C7.762563,10.82322,8.237437,10.82322,8.53033,10.53033C8.53033,10.53033,7.46967,9.46967,7.46967,9.46967C7.46967,9.46967,7.46967,9.46967,7.46967,9.46967ZM12,6C12,6,12.53033,5.46967,12.53033,5.46967C12.23744,5.1767768,11.76256,5.1767768,11.46967,5.46967C11.46967,5.46967,12,6,12,6C12,6,12,6,12,6ZM15.46967,10.53033C15.76256,10.82322,16.23744,10.82322,16.53033,10.53033C16.82322,10.23744,16.82322,9.76256,16.53033,9.46967C16.53033,9.46967,15.46967,10.53033,15.46967,10.53033C15.46967,10.53033,15.46967,10.53033,15.46967,10.53033ZM11.25,18C11.25,18.4142,11.58579,18.75,12,18.75C12.41421,18.75,12.75,18.4142,12.75,18C12.75,18,11.25,18,11.25,18C11.25,18,11.25,18,11.25,18ZM8.53033,10.53033C8.53033,10.53033,12.53033,6.53033,12.53033,6.53033C12.53033,6.53033,11.46967,5.46967,11.46967,5.46967C11.46967,5.46967,7.46967,9.46967,7.46967,9.46967C7.46967,9.46967,8.53033,10.53033,8.53033,10.53033C8.53033,10.53033,8.53033,10.53033,8.53033,10.53033ZM11.46967,6.53033C11.46967,6.53033,15.46967,10.53033,15.46967,10.53033C15.46967,10.53033,16.53033,9.46967,16.53033,9.46967C16.53033,9.46967,12.53033,5.46967,12.53033,5.46967C12.53033,5.46967,11.46967,6.53033,11.46967,6.53033C11.46967,6.53033,11.46967,6.53033,11.46967,6.53033ZM11.25,6C11.25,6,11.25,18,11.25,18C11.25,18,12.75,18,12.75,18C12.75,18,12.75,6,12.75,6C12.75,6,11.25,6,11.25,6C11.25,6,11.25,6,11.25,6Z" fill="#333333" fill-opacity="1"/></g></g></svg>