<svg xmlns="http://www.w3.org/2000/svg" xmlns:xlink="http://www.w3.org/1999/xlink" fill="none" version="1.1" width="30" height="30" viewBox="0 0 30 30"><defs><clipPath id="master_svg0_170_4831"><rect x="0" y="0" width="30" height="30" rx="15"/></clipPath></defs><g clip-path="url(#master_svg0_170_4831)"><rect x="0" y="0" width="30" height="30" rx="15" fill="#000000" fill-opacity="0.05000000074505806"/><g><path d="M14.99999,10.51937C14.99999,10.51937,15.61199,9.86183,15.61199,9.86183C17.3021,8.046057,20.042299999999997,8.046057,21.7324,9.86183C23.4225,11.6776,23.4225,14.62154,21.7324,16.43731C21.7324,16.43731,16.224069999999998,22.3553,16.224069999999998,22.3553C15.54799,23.0816,14.45195,23.0816,13.77591,22.3553C13.77591,22.3553,8.26757,16.43731,8.26757,16.43731C6.577475,14.62154,6.577476,11.6776,8.26757,9.86183C9.95767,8.046056,12.69786,8.046058,14.38795,9.86183C14.38795,9.86183,14.99999,10.51937,14.99999,10.51937C14.99999,10.51937,14.99999,10.51937,14.99999,10.51937Z" fill-rule="evenodd" fill="#FF5659" fill-opacity="1"/></g></g></svg>