<svg xmlns="http://www.w3.org/2000/svg" xmlns:xlink="http://www.w3.org/1999/xlink" fill="none" version="1.1" width="20" height="20.000001907348636" viewBox="0 0 20 20.000001907348636"><defs><clipPath id="master_svg0_112_4999"><rect x="0" y="20.000001907348636" width="20" height="20.000001907348633" rx="0"/></clipPath></defs><g transform="matrix(1,-1.6081230200044232e-16,-1.6081230200044232e-16,-1,3.216246346733971e-15,40.00000381469727)" clip-path="url(#master_svg0_112_4999)"><g transform="matrix(0,-1,1,0,-27.083192825317383,42.49981880187988)"><path d="M8.723772988281251,34.928485813598634C8.45423198828125,34.71285481359863,8.06092498828125,34.75655571359863,7.84529298828125,35.02609481359863C7.62966198828125,35.29563281359863,7.67336288828125,35.688940813598634,7.94290198828125,35.90457581359863C7.94290198828125,35.90457581359863,8.723772988281251,34.928485813598634,8.723772988281251,34.928485813598634C8.723772988281251,34.928485813598634,8.723772988281251,34.928485813598634,8.723772988281251,34.928485813598634ZM12.50000298828125,38.74986581359863C12.50000298828125,38.74986581359863,12.10957298828125,39.23790581359863,12.10957298828125,39.23790581359863C12.33783298828125,39.420515813598634,12.66218298828125,39.420515813598634,12.890432988281251,39.23790581359863C12.890432988281251,39.23790581359863,12.50000298828125,38.74986581359863,12.50000298828125,38.74986581359863C12.50000298828125,38.74986581359863,12.50000298828125,38.74986581359863,12.50000298828125,38.74986581359863ZM17.057082988281252,35.90457581359863C17.32667298828125,35.688940813598634,17.37033298828125,35.29563281359863,17.154752988281253,35.02609481359863C16.93908298828125,34.75655571359863,16.54578298828125,34.71285481359863,16.27623298828125,34.928485813598634C16.27623298828125,34.928485813598634,17.057082988281252,35.90457581359863,17.057082988281252,35.90457581359863C17.057082988281252,35.90457581359863,17.057082988281252,35.90457581359863,17.057082988281252,35.90457581359863ZM7.94290198828125,35.90457581359863C7.94290198828125,35.90457581359863,12.10957298828125,39.23790581359863,12.10957298828125,39.23790581359863C12.10957298828125,39.23790581359863,12.890432988281251,38.26181581359863,12.890432988281251,38.26181581359863C12.890432988281251,38.26181581359863,8.723772988281251,34.928485813598634,8.723772988281251,34.928485813598634C8.723772988281251,34.928485813598634,7.94290198828125,35.90457581359863,7.94290198828125,35.90457581359863C7.94290198828125,35.90457581359863,7.94290198828125,35.90457581359863,7.94290198828125,35.90457581359863ZM12.890432988281251,39.23790581359863C12.890432988281251,39.23790581359863,17.057082988281252,35.90457581359863,17.057082988281252,35.90457581359863C17.057082988281252,35.90457581359863,16.27623298828125,34.928485813598634,16.27623298828125,34.928485813598634C16.27623298828125,34.928485813598634,12.10957298828125,38.26181581359863,12.10957298828125,38.26181581359863C12.10957298828125,38.26181581359863,12.890432988281251,39.23790581359863,12.890432988281251,39.23790581359863C12.890432988281251,39.23790581359863,12.890432988281251,39.23790581359863,12.890432988281251,39.23790581359863Z" fill="#C9CDD4" fill-opacity="1"/></g></g></svg>