<svg xmlns="http://www.w3.org/2000/svg" xmlns:xlink="http://www.w3.org/1999/xlink" fill="none" version="1.1" width="48" height="48" viewBox="0 0 48 48"><defs><clipPath id="master_svg0_1_15651"><rect x="0" y="0" width="48" height="48" rx="0"/></clipPath><clipPath id="master_svg1_112_5008"><rect x="6" y="6" width="36" height="36" rx="0"/></clipPath></defs><g clip-path="url(#master_svg0_1_15651)"><g><g><path d="M48,24C48,37.2547,37.2547,48,24,48C10.7452,48,0,37.2547,0,24C0,10.7452,10.7452,0,24,0C37.2547,0,48,10.7452,48,24C48,24,48,24,48,24Z" fill="#FFFFFF" fill-opacity="0.5"/></g></g><g clip-path="url(#master_svg1_112_5008)"><g transform="matrix(1,0,0,-1,0,69.5999984741211)"><path d="M22.78662,35.29714723706055C23.44948,34.634283237060544,24.52421,34.634283237060544,25.187060000000002,35.29714723706055C25.187060000000002,35.29714723706055,31.9765,42.086619237060546,31.9765,42.086619237060546C32.639399999999995,42.74947923706055,32.639399999999995,43.82420923706054,31.9765,44.48705923706055C31.3137,45.149899237060545,30.239,45.149899237060545,29.5761,44.48705923706055C29.5761,44.48705923706055,25.6842,40.59517923706055,25.6842,40.59517923706055C25.6842,40.59517923706055,25.6842,54.602599237060545,25.6842,54.602599237060545C25.6842,55.540099237060545,24.92426,56.29999923706055,23.98684,56.29999923706055C23.049419999999998,56.29999923706055,22.28947,55.540099237060545,22.28947,54.602599237060545C22.28947,54.602599237060545,22.28947,40.59517923706055,22.28947,40.59517923706055C22.28947,40.59517923706055,18.39759,44.48705923706055,18.39759,44.48705923706055C17.73473,45.149899237060545,16.66001,45.149899237060545,15.997148,44.48705923706055C15.334284,43.82420923706054,15.334284,42.74947923706055,15.997148,42.086619237060546C15.997148,42.086619237060546,22.78662,35.29714723706055,22.78662,35.29714723706055C22.78662,35.29714723706055,22.78662,35.29714723706055,22.78662,35.29714723706055Z" fill-rule="evenodd" fill="#FFFFFF" fill-opacity="1"/></g></g></g></svg>