<svg xmlns="http://www.w3.org/2000/svg" xmlns:xlink="http://www.w3.org/1999/xlink" fill="none" version="1.1" width="30" height="30" viewBox="0 0 30 30"><defs><clipPath id="master_svg0_170_4839"><rect x="0" y="0" width="30" height="30" rx="15"/></clipPath><clipPath id="master_svg1_170_4841"><rect x="3" y="3" width="24" height="24" rx="0"/></clipPath></defs><g clip-path="url(#master_svg0_170_4839)"><rect x="0" y="0" width="30" height="30" rx="15" fill="#000000" fill-opacity="0.05000000074505806"/><g clip-path="url(#master_svg1_170_4841)"><g><path d="M14.99999,10.219369809265137C14.99999,10.219369809265137,15.61199,9.561829809265136,15.61199,9.561829809265136C17.3021,7.746056809265137,20.042299999999997,7.746056809265137,21.7324,9.561829809265136C23.4225,11.377599809265137,23.4225,14.321539809265136,21.7324,16.137309809265137C21.7324,16.137309809265137,16.224069999999998,22.055299809265136,16.224069999999998,22.055299809265136C15.54799,22.78159980926514,14.45195,22.78159980926514,13.77591,22.055299809265136C13.77591,22.055299809265136,8.26757,16.137309809265137,8.26757,16.137309809265137C6.577475,14.321539809265136,6.577476,11.377599809265137,8.26757,9.561829809265136C9.95767,7.746055809265137,12.69786,7.746057809265137,14.38795,9.561829809265136C14.38795,9.561829809265136,14.99999,10.219369809265137,14.99999,10.219369809265137C14.99999,10.219369809265137,14.99999,10.219369809265137,14.99999,10.219369809265137Z" fill-rule="evenodd" fill="#FFFFFF" fill-opacity="0.8999999761581421"/></g></g></g></svg>