<svg xmlns="http://www.w3.org/2000/svg" xmlns:xlink="http://www.w3.org/1999/xlink" fill="none" version="1.1" width="48" height="48" viewBox="0 0 48 48"><defs><clipPath id="master_svg0_1_15642"><rect x="0" y="0" width="48" height="48" rx="24"/></clipPath><clipPath id="master_svg1_112_5024"><rect x="6" y="6" width="36" height="36" rx="0"/></clipPath></defs><g clip-path="url(#master_svg0_1_15642)"><rect x="0" y="0" width="48" height="48" rx="24" fill="#FFFFFF" fill-opacity="0.5"/><g clip-path="url(#master_svg1_112_5024)"><g><path d="M24,16.8289867578125C24,16.8289867578125,24.918,15.8426667578125,24.918,15.8426667578125C27.453200000000002,13.1190117578125,31.5635,13.1190117578125,34.098600000000005,15.8426667578125C36.6338,18.5663167578125,36.6338,22.9822467578125,34.098600000000005,25.7059267578125C34.098600000000005,25.7059267578125,25.836100000000002,34.5828267578125,25.836100000000002,34.5828267578125C24.822,35.6723267578125,23.1779,35.6723267578125,22.163899999999998,34.5828267578125C22.163899999999998,34.5828267578125,13.90136,25.7059267578125,13.90136,25.7059267578125C11.366213,22.9822467578125,11.366214,18.5663167578125,13.90136,15.8426667578125C16.4365,13.1190107578125,20.54678,13.1190127578125,23.081899999999997,15.8426667578125C23.081899999999997,15.8426667578125,24,16.8289867578125,24,16.8289867578125C24,16.8289867578125,24,16.8289867578125,24,16.8289867578125Z" fill-rule="evenodd" fill="#FFFFFF" fill-opacity="1"/></g></g></g></svg>