<svg xmlns="http://www.w3.org/2000/svg" xmlns:xlink="http://www.w3.org/1999/xlink" fill="none" version="1.1" width="24" height="24" viewBox="0 0 24 24"><defs><clipPath id="master_svg0_199_4568"><rect x="0" y="0" width="24" height="24" rx="12"/></clipPath></defs><g clip-path="url(#master_svg0_199_4568)"><rect x="0" y="0" width="24" height="24" rx="12" fill="#333333" fill-opacity="0.75"/><g><path d="M17.27685859375,17.9997L6.96320859375,17.9997C6.32643859375,18.009999999999998,5.71247859375,17.7806,5.26226059375,17.3642C4.80598859375,16.9608,4.55169551375,16.400199999999998,4.56028200975,15.81667L4.56028200975,9.87625C4.55143343375,9.29264,4.80576859375,8.73196,5.26226059375,8.32874C5.71224859375,7.91195,6.32631859375,7.68235,6.96320859375,7.69277L8.264568593749999,7.69277L8.534558593749999,7.10322C8.68556859375,6.793259,8.92671859375,6.528154,9.23113859375,6.3374559999999995C9.53616859375,6.123844,9.90688859375,6.00564145,10.28950859375,6L14.02078859375,6C14.40228859375,6.010943,14.77125859375,6.128416,15.07915859375,6.336957C15.38185859375,6.525672,15.62135859375,6.789061,15.77035859375,7.09723L16.01875859375,7.69277L17.27685859375,7.69277C17.91375859375,7.68235,18.52785859375,7.91195,18.97785859375,8.32875C19.43465859375,8.73175,19.689058593749998,9.29257,19.679858593749998,9.87625L19.679858593749998,15.81667C19.689058593749998,16.400399999999998,19.43465859375,16.961199999999998,18.97785859375,17.3642C18.52775859375,17.7808,17.91365859375,18.010199999999998,17.27685859375,17.9997ZM6.96320859375,8.67369C6.61106859375,8.66427,6.27060859375,8.790890000000001,6.02363859375,9.02313C5.77070859375,9.24455,5.63134859375,9.554829999999999,5.64024859375,9.87675L5.64024859375,15.81717C5.63146859375,16.139200000000002,5.7707985937499995,16.4496,6.02363859375,16.671300000000002C6.27083859375,16.9032,6.61114859375,17.0298,6.96320859375,17.020699999999998L17.27685859375,17.020699999999998C17.62895859375,17.029899999999998,17.96935859375,16.9033,18.216458593749998,16.671300000000002C18.46955859375,16.45,18.60895859375,16.1396,18.59985859375,15.81767L18.59985859375,9.87725C18.60885859375,9.55517,18.469458593749998,9.2447,18.216458593749998,9.02313C17.96935859375,8.79105,17.62895859375,8.66445,17.27685859375,8.67369L15.27355859375,8.67369L14.77135859375,7.46514C14.69905859375,7.3308599999999995,14.58905859375,7.21705,14.45277859375,7.13567C14.32736859375,7.04758,14.17765859375,6.993951,14.02078859375,6.980918L10.28950859375,6.980918C10.13099859375,6.987082,9.97912859375,7.04148,9.857518593750001,7.13567C9.71545859375,7.22236,9.60158859375,7.34315,9.52812859375,7.48511L8.988148593750001,8.67469L6.96320859375,8.67469L6.96320859375,8.67369ZM12.120048593749999,15.68239C10.36862859375,15.6522,8.97211859375,14.32049,8.99378859375,12.70121C9.015458593750001,11.08193,10.447188593749999,9.78258,12.198878593749999,9.79245C13.95087859375,9.80261,15.36535859375,11.11801,15.36535859375,12.73714C15.34665859375,14.37802,13.89503859375,15.69542,12.120048593749999,15.68239ZM12.120048593749999,10.7753C10.95243859375,10.79616,10.02199859375,11.68442,10.03696859375,12.76394C10.05193859375,13.84346,11.00670859375,14.70938,12.17450859375,14.70256C13.34252859375,14.69554,14.28537859375,13.818539999999999,14.28537859375,12.73913C14.27232859375,11.644739999999999,13.30389859375,10.76643,12.120048593749999,10.7753Z" fill="#FFFFFF" fill-opacity="1"/></g></g></svg>