<svg xmlns="http://www.w3.org/2000/svg" xmlns:xlink="http://www.w3.org/1999/xlink" fill="none" version="1.1" width="24" height="24" viewBox="0 0 24 24"><defs><clipPath id="master_svg0_194_3778"><rect x="0" y="0" width="24" height="24" rx="0"/></clipPath></defs><g clip-path="url(#master_svg0_194_3778)"><g><path d="M17.2319,16.4426C17.0139,16.224600000000002,16.660600000000002,16.224600000000002,16.4426,16.4426C16.224600000000002,16.660600000000002,16.224600000000002,17.0139,16.4426,17.2319C16.4426,17.2319,17.2319,16.4426,17.2319,16.4426C17.2319,16.4426,17.2319,16.4426,17.2319,16.4426ZM19.0472,19.8365C19.2652,20.0545,19.618499999999997,20.0545,19.8365,19.8365C20.0545,19.618499999999997,20.0545,19.2652,19.8365,19.0472C19.8365,19.0472,19.0472,19.8365,19.0472,19.8365C19.0472,19.8365,19.0472,19.8365,19.0472,19.8365ZM19.2558,11.62792C19.2558,7.4151299999999996,15.8407,4,11.62792,4C11.62792,4,11.62792,5.11628,11.62792,5.11628C15.2242,5.11628,18.1396,8.03164,18.1396,11.62792C18.1396,11.62792,19.2558,11.62792,19.2558,11.62792C19.2558,11.62792,19.2558,11.62792,19.2558,11.62792ZM11.62792,4C7.4151299999999996,4,4,7.4151299999999996,4,11.62792C4,11.62792,5.11628,11.62792,5.11628,11.62792C5.11628,8.03164,8.03164,5.11628,11.62792,5.11628C11.62792,5.11628,11.62792,4,11.62792,4C11.62792,4,11.62792,4,11.62792,4ZM4,11.62792C4,15.8407,7.4151299999999996,19.2558,11.62792,19.2558C11.62792,19.2558,11.62792,18.1396,11.62792,18.1396C8.03164,18.1396,5.11628,15.2242,5.11628,11.62792C5.11628,11.62792,4,11.62792,4,11.62792C4,11.62792,4,11.62792,4,11.62792ZM11.62792,19.2558C15.8407,19.2558,19.2558,15.8407,19.2558,11.62792C19.2558,11.62792,18.1396,11.62792,18.1396,11.62792C18.1396,15.2242,15.2242,18.1396,11.62792,18.1396C11.62792,18.1396,11.62792,19.2558,11.62792,19.2558C11.62792,19.2558,11.62792,19.2558,11.62792,19.2558ZM16.4426,17.2319C16.4426,17.2319,19.0472,19.8365,19.0472,19.8365C19.0472,19.8365,19.8365,19.0472,19.8365,19.0472C19.8365,19.0472,17.2319,16.4426,17.2319,16.4426C17.2319,16.4426,16.4426,17.2319,16.4426,17.2319C16.4426,17.2319,16.4426,17.2319,16.4426,17.2319Z" fill="#86909C" fill-opacity="1"/></g></g></svg>