<svg xmlns="http://www.w3.org/2000/svg" xmlns:xlink="http://www.w3.org/1999/xlink" fill="none" version="1.1" width="60" height="60" viewBox="0 0 60 60"><defs><clipPath id="master_svg0_157_5172"><rect x="0" y="0" width="60" height="60" rx="0"/></clipPath></defs><g clip-path="url(#master_svg0_157_5172)"><rect x="0" y="0" width="60" height="60" rx="0" fill="#2C2C2C" fill-opacity="1"/><g><path d="M14.00707541,34.8254C17.03057,44.742999999999995,21.16744,44.9478,25.2071,46L33.7404,46C39.41,45.257400000000004,43.6856,41.8846,46.0071,34.8254L46.0071,14L39.0737,14L39.0737,31.8386C39.0737,32.373000000000005,38.6476,32.829,38.1208,32.7388C36.4503,32.452799999999996,34.9414,31.0992,33.7404,27.7143L30.0071,27.7143C29.6708,31.0539,28.6856,32.5702,26.8071,32.7937Q25.218400000000003,33.448899999999995,23.60706,30.762L23.60708,14L14.00707541,14L14.00707541,34.8254Z" fill="#FFFFFF" fill-opacity="1"/></g></g></svg>