<svg xmlns="http://www.w3.org/2000/svg" xmlns:xlink="http://www.w3.org/1999/xlink" fill="none" version="1.1" width="24" height="24" viewBox="0 0 24 24"><defs><clipPath id="master_svg0_52_4105"><rect x="0" y="0" width="24" height="24" rx="0"/></clipPath></defs><g clip-path="url(#master_svg0_52_4105)"><g><g><path d="M21,17.966800003726178C21,17.966800003726178,21,10.15033000372618,21,10.15033000372618C21,8.93937000372618,20.4604,7.792500003726181,19.5301,7.02652000372618C19.5301,7.02652000372618,14.5301,2.9093450037261803,14.5301,2.9093450037261803C13.0577,1.6968830037261802,10.9423,1.6968860037261804,9.46986,2.9093480037261803C9.46986,2.9093480037261803,4.46986,7.02652000372618,4.46986,7.02652000372618C3.539645,7.792500003726181,3,8.93937000372618,3,10.15033000372618C3,10.15033000372618,3,17.966800003726178,3,17.966800003726178C3,20.194300003726177,4.79086,22.00000000372618,7,22.00000000372618C7,22.00000000372618,17,22.00000000372618,17,22.00000000372618C19.2091,22.00000000372618,21,20.194300003726177,21,17.966800003726178C21,17.966800003726178,21,17.966800003726178,21,17.966800003726178Z" fill="#86909C" fill-opacity="1"/></g></g></g></svg>