<svg xmlns="http://www.w3.org/2000/svg" xmlns:xlink="http://www.w3.org/1999/xlink" fill="none" version="1.1" width="24" height="24" viewBox="0 0 24 24"><defs><clipPath id="master_svg0_112_4981"><rect x="0" y="0" width="24" height="24" rx="0"/></clipPath></defs><g clip-path="url(#master_svg0_112_4981)"><g><g><path d="M19.77559979019165,17.555500000000002C19.77559979019165,20.0101,16.29329979019165,22,11.99777979019165,22C7.70222979019165,22,4.21999979019165,20.0101,4.21999979019165,17.555500000000002C4.21999979019165,15.1009,7.70222979019165,13.1111,11.99777979019165,13.1111C16.29329979019165,13.1111,19.77559979019165,15.1009,19.77559979019165,17.555500000000002C19.77559979019165,17.555500000000002,19.77559979019165,17.555500000000002,19.77559979019165,17.555500000000002ZM16.44219979019165,6.44444C16.44219979019165,8.89904,14.45239979019165,10.88889,11.99778979019165,10.88889C9.54318979019165,10.88889,7.55333979019165,8.89904,7.55333979019165,6.44444C7.55333979019165,3.98984,9.54318979019165,2,11.99778979019165,2C14.45239979019165,2,16.44219979019165,3.98984,16.44219979019165,6.44444C16.44219979019165,6.44444,16.44219979019165,6.44444,16.44219979019165,6.44444Z" fill="#86909C" fill-opacity="1"/></g></g></g></svg>