<svg xmlns="http://www.w3.org/2000/svg" xmlns:xlink="http://www.w3.org/1999/xlink" fill="none" version="1.1" width="54" height="17" viewBox="0 0 54 17"><defs><clipPath id="master_svg0_199_3994"><rect x="0" y="0" width="54" height="17" rx="8.5"/></clipPath><clipPath id="master_svg1_199_4003"><rect x="7" y="1" width="15" height="15" rx="0"/></clipPath></defs><g clip-path="url(#master_svg0_199_3994)"><rect x="0" y="0" width="54" height="17" rx="8.5" fill="#DDDDDD" fill-opacity="1"/><g clip-path="url(#master_svg1_199_4003)"><g><path d="M15.185750039062501,3.278924725097656C15.2356600390625,3.3204957250976563,15.2816800390625,3.3665187250976563,15.3232500390625,3.4164247250976563L17.3571800390625,5.857135725097656L19.6007400390625,4.200355725097657C19.9643400390625,3.9317767250976563,20.4574400390625,3.9203077250976563,20.8331400390625,4.171685725097657C21.2088400390625,4.423065725097656,21.3863400390625,4.883205725097656,21.2768400390625,5.321785725097657L19.142940039062502,13.857155725097655L9.8571800390625,13.857155725097655L7.7232515390625,5.322135725097656C7.6132986390625,4.883445725097657,7.7906497390625,4.4229557250976566,8.1664620390625,4.171345725097656C8.542275039062499,3.9197337250976565,9.0356000390625,3.931199725097656,9.3993200390625,4.199995725097656L11.6428900390625,5.857135725097656L13.6768200390625,3.4164247250976563C14.0555700390625,2.961562125097656,14.7314000390625,2.8999927250976563,15.1861100390625,3.278924725097656L15.185750039062501,3.278924725097656ZM17.000040039062497,10.809635725097657L12.000040039062501,10.809635725097657L12.000040039062501,11.952495725097656L17.000040039062497,11.952495725097656L17.000040039062497,10.809635725097657Z" fill="#B7B7B7" fill-opacity="1"/></g></g><g><path d="M27.315,12.5L28.795,12.5L28.795,9.87L29.785,9.87C31.375,9.87,32.644999999999996,9.11,32.644999999999996,7.42C32.644999999999996,5.67,31.384999999999998,5.09,29.745,5.09L27.315,5.09L27.315,12.5ZM28.795,8.7L28.795,6.27L29.634999999999998,6.27C30.655,6.27,31.195,6.56,31.195,7.42C31.195,8.27,30.705,8.7,29.685,8.7L28.795,8.7ZM35.465,8.530000000000001L35.465,6.27L36.425,6.27C37.375,6.27,37.894999999999996,6.54,37.894999999999996,7.34C37.894999999999996,8.129999999999999,37.375,8.530000000000001,36.425,8.530000000000001L35.465,8.530000000000001ZM38.015,12.5L39.665,12.5L37.935,9.469999999999999C38.785,9.14,39.345,8.45,39.345,7.34C39.345,5.64,38.115,5.09,36.555,5.09L33.985,5.09L33.985,12.5L35.465,12.5L35.465,9.7L36.495,9.7L38.015,12.5ZM43.745000000000005,12.64C45.705,12.64,47.055,11.17,47.055,8.76C47.055,6.36,45.705,4.96,43.745000000000005,4.96C41.785,4.96,40.435,6.36,40.435,8.76C40.435,11.17,41.785,12.64,43.745000000000005,12.64ZM43.745000000000005,11.36C42.644999999999996,11.36,41.955,10.34,41.955,8.76C41.955,7.18,42.644999999999996,6.23,43.745000000000005,6.23C44.845,6.23,45.545,7.18,45.545,8.76C45.545,10.34,44.845,11.36,43.745000000000005,11.36Z" fill="#B7B7B7" fill-opacity="1"/></g></g></svg>